<mxfile host="65bd71144e">
    <diagram id="Gm6hQ-7pC8gcmavoW7fE" name="Page-1">
        <mxGraphModel dx="954" dy="749" grid="1" gridSize="10" guides="1" tooltips="1" connect="1" arrows="1" fold="1" page="1" pageScale="1" pageWidth="850" pageHeight="1100" math="0" shadow="0">
            <root>
                <mxCell id="0"/>
                <mxCell id="1" parent="0"/>
                <mxCell id="2" value="" style="rounded=0;whiteSpace=wrap;html=1;" vertex="1" parent="1">
                    <mxGeometry x="160" y="120" width="320" height="170" as="geometry"/>
                </mxCell>
                <mxCell id="3" value="nature, pollution, sustainability, environmentally friendly" style="rounded=0;whiteSpace=wrap;html=1;" vertex="1" parent="1">
                    <mxGeometry x="180" y="170" width="280" height="30" as="geometry"/>
                </mxCell>
                <mxCell id="4" value="Wikipedia" style="rounded=1;whiteSpace=wrap;html=1;" vertex="1" parent="1">
                    <mxGeometry x="200" y="230" width="80" height="30" as="geometry"/>
                </mxCell>
                <mxCell id="5" value="News" style="rounded=1;whiteSpace=wrap;html=1;" vertex="1" parent="1">
                    <mxGeometry x="360" y="230" width="80" height="30" as="geometry"/>
                </mxCell>
            </root>
        </mxGraphModel>
    </diagram>
</mxfile>